# xmcd
#
# Track frame offsets: 
#        150
#        14162
#        34660
#        50472
#        65650
#        89317
#        104825
#        115274
#        127661
#        151250
#        166575
#
# Disc length: 2488 seconds
#
# Revision: 0
# Processed by: cddbd v1.5.1PL0 Copyright (c) Steve Scherf et al.
# Submitted via: ExactAudioCopy v0.95a5
#
DISCID=8a09b60b
DTITLE=Jack Bowman - desnudez
DYEAR=2001
DGENRE=Rock
TTITLE0=Black Rain
TTITLE1=Desnudez
TTITLE2=Lupe (for Lupe Velez)
TTITLE3=Chromium 6
TTITLE4=Mr. Gilmore
TTITLE5=You're Killin' Me
TTITLE6=A Clock With No Hands
TTITLE7=Hypnosis
TTITLE8=I Just Can't Stand
TTITLE9=Drive My Limosine
TTITLE10=Road Rage
EXTD=
EXTT0=
EXTT1=
EXTT2=
EXTT3=
EXTT4=
EXTT5=
EXTT6=
EXTT7=
EXTT8=
EXTT9=
EXTT10=
PLAYORDER=
